<svg data-v-fde0c5aa="" xmlns="http://www.w3.org/2000/svg" viewBox="0 0 300 300" class="iconLeftSlogan"><!----><defs data-v-fde0c5aa=""><!----></defs><rect data-v-fde0c5aa="" fill="transparent" x="0" y="0" width="300px" height="300px" class="logo-background-square"></rect><defs data-v-fde0c5aa=""><!----></defs><g data-v-fde0c5aa="" id="0cc5a2aa-0c6d-46d0-8739-ead890156082" fill="#1E1385" transform="matrix(2.4023341694675246,0,0,2.4023341694675246,120.01598799094823,122.8473343507481)"><path d="M4.20 4.90L4.20 4.90Q4.84 4.90 5.39 5.05Q5.94 5.21 6.33 5.49Q6.73 5.78 6.96 6.19Q7.18 6.59 7.18 7.08L7.18 7.08Q7.18 7.71 6.85 8.04Q6.51 8.37 6.02 8.37L6.02 8.37Q5.74 8.37 5.56 8.28Q5.38 8.19 5.26 8.04Q5.14 7.90 5.09 7.71Q5.04 7.53 5.04 7.35L5.04 7.35Q5.04 7.00 5.21 6.75Q5.39 6.50 5.74 6.38L5.74 6.38Q5.54 6.13 5.15 5.98Q4.76 5.82 4.27 5.82L4.27 5.82Q3.82 5.82 3.48 5.98Q3.14 6.13 2.90 6.47Q2.66 6.82 2.53 7.38Q2.41 7.95 2.41 8.78L2.41 8.78Q2.41 9.53 2.51 9.97Q2.60 10.40 2.77 10.72L2.77 10.72Q3.00 11.13 3.35 11.36Q3.70 11.59 4.24 11.59L4.24 11.59Q4.52 11.59 4.84 11.52Q5.15 11.45 5.45 11.32Q5.75 11.19 6.03 10.98Q6.30 10.77 6.51 10.47L6.51 10.47L7.27 11.06Q6.61 11.97 5.75 12.36Q4.89 12.74 3.91 12.74L3.91 12.74Q2.86 12.74 2.14 12.34Q1.43 11.94 1.02 11.17L1.02 11.17Q0.78 10.72 0.65 10.14Q0.52 9.56 0.52 8.89L0.52 8.89Q0.52 7.98 0.77 7.24Q1.02 6.51 1.49 5.98Q1.96 5.46 2.65 5.18Q3.33 4.90 4.20 4.90ZM14.90 9.02L10.01 9.02Q10.01 9.97 10.29 10.60L10.29 10.60Q10.74 11.59 11.83 11.59L11.83 11.59Q12.46 11.59 13.06 11.32Q13.66 11.05 14.10 10.47L14.10 10.47L14.85 11.06Q14.36 11.76 13.53 12.25Q12.70 12.74 11.48 12.74L11.48 12.74Q10.44 12.74 9.71 12.33Q8.97 11.91 8.58 11.12L8.58 11.12Q8.37 10.68 8.27 10.16Q8.18 9.63 8.18 9.00L8.18 9.00Q8.18 7.04 9.07 5.97Q9.97 4.90 11.63 4.90L11.63 4.90Q12.39 4.90 13.01 5.13Q13.62 5.36 14.05 5.79Q14.48 6.22 14.71 6.84Q14.94 7.46 14.94 8.25L14.94 8.25Q14.94 8.40 14.93 8.55Q14.92 8.69 14.90 9.02L14.90 9.02ZM11.61 5.87L11.61 5.87Q10.16 5.87 10.02 8.12L10.02 8.12L13.10 8.12L13.10 7.76Q13.10 6.85 12.71 6.36Q12.32 5.87 11.61 5.87ZM20.05 6.06L20.05 6.06Q19.92 6.06 19.78 6.17Q19.64 6.29 19.51 6.45Q19.38 6.62 19.27 6.81Q19.17 7.00 19.11 7.14L19.11 7.14Q18.94 7.63 18.82 8.13Q18.69 8.62 18.69 9.35L18.69 9.35L18.69 11.55L20.20 11.82L20.20 12.60L15.83 12.60L15.83 11.82L16.91 11.55L16.91 5.88L15.83 5.61L15.83 5.04L18.27 5.04L18.58 6.89L18.63 6.89Q18.96 5.92 19.50 5.41Q20.03 4.90 20.71 4.90L20.71 4.90Q21.25 4.90 21.62 5.24Q21.98 5.59 21.98 6.16L21.98 6.16Q21.98 6.58 21.73 6.92Q21.48 7.27 21.01 7.27L21.01 7.27Q20.44 7.27 20.21 7.01Q19.98 6.75 19.98 6.44L19.98 6.44Q19.98 6.34 19.99 6.28Q20.01 6.22 20.05 6.06ZM22.13 5.95L22.13 5.24L23.51 5.04L23.67 3.30L25.27 3.08L25.27 5.04L27.06 5.04L27.06 5.95L25.27 5.95L25.27 10.53Q25.27 11.00 25.28 11.18Q25.30 11.35 25.34 11.47L25.34 11.47Q25.38 11.55 25.49 11.59Q25.61 11.63 25.86 11.63L25.86 11.63L26.84 11.63L26.84 12.25Q26.03 12.50 25.40 12.62Q24.78 12.74 24.42 12.74L24.42 12.74Q23.79 12.74 23.60 12.22L23.60 12.22Q23.53 12.05 23.51 11.79Q23.49 11.54 23.49 11.00L23.49 11.00L23.49 5.95L22.13 5.95ZM30.58 11.89L30.58 11.89Q30.93 11.89 31.23 11.82Q31.54 11.75 31.77 11.62Q32.00 11.49 32.14 11.30Q32.27 11.12 32.27 10.88L32.27 10.88Q32.27 10.60 32.09 10.39Q31.92 10.18 31.63 10.02Q31.35 9.87 30.99 9.75Q30.63 9.63 30.28 9.52L30.28 9.52Q29.85 9.39 29.43 9.21Q29.02 9.02 28.69 8.73Q28.36 8.44 28.17 8.05Q27.97 7.66 27.97 7.13L27.97 7.13Q27.97 6.12 28.70 5.51Q29.43 4.90 30.79 4.90L30.79 4.90Q31.43 4.90 31.95 5.04Q32.47 5.18 32.83 5.44Q33.19 5.70 33.40 6.05Q33.60 6.41 33.60 6.83L33.60 6.83Q33.60 7.32 33.34 7.57Q33.08 7.83 32.63 7.83L32.63 7.83Q32.19 7.83 31.93 7.61Q31.68 7.39 31.68 7.10L31.68 7.10Q31.68 6.86 31.82 6.64Q31.96 6.43 32.19 6.31L32.19 6.31Q31.99 6.05 31.66 5.90Q31.33 5.75 30.84 5.75L30.84 5.75Q30.18 5.75 29.86 6.03Q29.54 6.30 29.54 6.79L29.54 6.79Q29.54 7.35 29.90 7.62Q30.27 7.90 30.88 8.08L30.88 8.08Q31.44 8.25 31.99 8.43Q32.54 8.61 32.96 8.88Q33.39 9.14 33.65 9.53Q33.91 9.91 33.91 10.46L33.91 10.46Q33.91 11.00 33.65 11.43Q33.39 11.86 32.94 12.14Q32.48 12.43 31.86 12.59Q31.25 12.74 30.53 12.74L30.53 12.74Q29.19 12.74 28.44 12.25Q27.69 11.76 27.69 10.92L27.69 10.92Q27.69 10.35 28.01 10.02Q28.34 9.70 28.78 9.70L28.78 9.70Q29.12 9.70 29.41 9.89Q29.69 10.08 29.69 10.43L29.69 10.43Q29.69 10.68 29.54 10.92Q29.39 11.16 29.19 11.27L29.19 11.27Q29.33 11.49 29.65 11.69Q29.97 11.89 30.58 11.89ZM42.20 8.82L42.20 8.82Q42.20 9.72 41.94 10.51Q41.68 11.30 41.19 11.83L41.19 11.83Q40.73 12.32 40.08 12.53Q39.44 12.74 38.56 12.74L38.56 12.74Q37.67 12.74 37.03 12.53Q36.39 12.32 35.92 11.83L35.92 11.83Q35.43 11.30 35.17 10.51Q34.92 9.72 34.92 8.82L34.92 8.82Q34.92 7.92 35.17 7.13Q35.43 6.34 35.92 5.81L35.92 5.81Q36.39 5.32 37.03 5.11Q37.67 4.90 38.56 4.90L38.56 4.90Q39.44 4.90 40.08 5.11Q40.73 5.32 41.19 5.81L41.19 5.81Q41.68 6.34 41.94 7.13Q42.20 7.92 42.20 8.82ZM37.28 11.24L37.28 11.24Q37.66 11.80 38.56 11.80L38.56 11.80Q39.45 11.80 39.83 11.24L39.83 11.24Q40.28 10.56 40.28 8.82L40.28 8.82Q40.28 7.08 39.83 6.40L39.83 6.40Q39.45 5.84 38.56 5.84L38.56 5.84Q37.66 5.84 37.28 6.40L37.28 6.40Q36.83 7.08 36.83 8.82L36.83 8.82Q36.83 10.56 37.28 11.24ZM42.95 6.16L42.95 5.26L44.31 5.07L44.31 4.69Q44.31 3.18 45.12 2.36Q45.93 1.54 47.32 1.54L47.32 1.54Q48.16 1.54 48.65 1.94Q49.14 2.34 49.14 2.95L49.14 2.95Q49.14 3.40 48.91 3.65Q48.68 3.89 48.27 3.89L48.27 3.89Q47.82 3.89 47.58 3.67Q47.33 3.46 47.33 3.05L47.33 3.05Q47.33 2.76 47.56 2.53L47.56 2.53Q47.40 2.28 47.14 2.28L47.14 2.28Q46.87 2.28 46.69 2.39L46.69 2.39Q46.47 2.55 46.34 2.76Q46.21 2.97 46.16 3.22Q46.10 3.47 46.09 3.76Q46.09 4.05 46.09 4.34L46.09 4.34L46.09 5.04L47.88 5.04L47.88 6.16L46.09 6.16L46.09 11.55L47.60 11.82L47.60 12.60L43.23 12.60L43.23 11.82L44.31 11.55L44.31 6.16L42.95 6.16ZM48.23 5.95L48.23 5.24L49.60 5.04L49.77 3.30L51.37 3.08L51.37 5.04L53.16 5.04L53.16 5.95L51.37 5.95L51.37 10.53Q51.37 11.00 51.38 11.18Q51.39 11.35 51.44 11.47L51.44 11.47Q51.48 11.55 51.59 11.59Q51.70 11.63 51.95 11.63L51.95 11.63L52.93 11.63L52.93 12.25Q52.12 12.50 51.50 12.62Q50.88 12.74 50.51 12.74L50.51 12.74Q49.88 12.74 49.70 12.22L49.70 12.22Q49.63 12.05 49.61 11.79Q49.59 11.54 49.59 11.00L49.59 11.00L49.59 5.95L48.23 5.95ZM53.34 5.95L53.34 5.24L54.71 5.04L54.88 3.30L56.48 3.08L56.48 5.04L58.27 5.04L58.27 5.95L56.48 5.95L56.48 10.53Q56.48 11.00 56.49 11.18Q56.50 11.35 56.55 11.47L56.55 11.47Q56.59 11.55 56.70 11.59Q56.81 11.63 57.06 11.63L57.06 11.63L58.04 11.63L58.04 12.25Q57.23 12.50 56.61 12.62Q55.99 12.74 55.62 12.74L55.62 12.74Q54.99 12.74 54.81 12.22L54.81 12.22Q54.74 12.05 54.72 11.79Q54.70 11.54 54.70 11.00L54.70 11.00L54.70 5.95L53.34 5.95Z"></path></g><defs data-v-fde0c5aa=""><!----></defs><g data-v-fde0c5aa="" id="a99467dd-2e8f-46e7-a0be-1a7197721798" stroke="none" fill="#0D194A" transform="matrix(0.6826520171325047,0,0,0.6826520171325047,40,111.9561451872391)"><path d="M0 13.422v84.615h100V13.422H0zm92.308 76.924H7.692V28.807h84.615v61.539z"></path><path d="M42.002 66.065H68.49v7.775H42.002zM15.521 66.064l26.467-10.515v-.022l.014.006v-8.352l-.014.006v-.022L15.521 36.65l-.006 8.364 15.972 6.343-15.972 6.344z"></path></g><defs data-v-fde0c5aa=""><!----></defs><g data-v-fde0c5aa="" id="70cdd3bc-cb17-4742-ad1b-f480187dc716" fill="#824C11" transform="matrix(0.6839954495603041,0,0,0.6839954495603041,121.00528342529444,161.46948425095792)"><path d="M0.38 12.39C0.38 12.63 0.38 12.68 0.57 12.68C0.74 12.68 1.06 12.64 1.64 12.64C2.25 12.64 2.80 12.68 2.95 12.68C3.12 12.68 3.12 12.61 3.12 12.40C3.12 12.24 3.12 12.18 2.95 12.18L1.88 12.18C1.88 12.18 1.86 12.18 1.86 12.17C1.88 11.87 2.65 9.90 3.00 9.02C3.07 8.83 3.08 8.79 3.29 8.79L6.12 8.79C6.26 8.79 6.26 8.81 6.33 9.03C6.59 9.77 7.31 11.89 7.31 12.17C7.31 12.18 7.29 12.18 7.29 12.18L6.52 12.18C6.30 12.18 6.29 12.19 6.29 12.39C6.29 12.63 6.30 12.68 6.47 12.68C6.79 12.68 7.66 12.64 8.08 12.64C8.50 12.64 9.17 12.68 9.38 12.68C9.52 12.68 9.53 12.61 9.53 12.40C9.53 12.24 9.52 12.18 9.38 12.18L8.89 12.18C8.79 12.18 7.77 9.34 7.21 7.78L5.53 3.07C5.52 3.00 5.45 2.94 5.36 2.94C5.24 2.94 5.14 3.16 5.05 3.35C4.90 3.71 4.66 3.84 4.55 4.13L3.07 7.57C2.88 8.01 1.18 12.18 1.05 12.18L0.63 12.18C0.41 12.18 0.38 12.19 0.38 12.39ZM3.28 8.33C3.28 8.30 3.30 8.23 3.35 8.13L4.72 4.77C4.76 4.66 4.79 4.61 4.82 4.61C4.83 4.61 4.84 4.63 4.89 4.77L6.05 8.18C6.08 8.25 6.09 8.29 6.09 8.32C6.09 8.36 6.06 8.37 5.96 8.37L3.46 8.37C3.28 8.37 3.28 8.34 3.28 8.33ZM17.29 12.39C17.29 12.63 17.30 12.68 17.50 12.68C17.68 12.68 18.06 12.64 18.68 12.64C19.31 12.64 19.87 12.68 20.19 12.68C20.36 12.68 20.36 12.61 20.36 12.40C20.36 12.24 20.36 12.18 20.19 12.18L18.98 12.18C18.94 12.18 18.93 11.54 18.93 10.79C18.93 9.46 18.94 7.48 18.94 5.99C18.94 5.25 18.94 4.84 18.96 4.28C18.96 4.02 19.03 4.14 19.15 4.28L26.04 12.66C26.12 12.75 26.21 12.89 26.32 12.89C26.43 12.89 26.50 12.77 26.50 12.54C26.50 12.39 26.67 6.65 26.68 4.48C26.68 4.06 26.71 3.70 26.74 3.70L27.37 3.70C27.59 3.70 27.65 3.68 27.65 3.49C27.65 3.25 27.65 3.19 27.45 3.19C27.26 3.19 26.82 3.23 26.26 3.23C25.65 3.23 24.85 3.19 24.75 3.19C24.58 3.19 24.58 3.26 24.58 3.47C24.58 3.64 24.58 3.70 24.75 3.70L26.05 3.70C26.07 3.70 26.07 4.33 26.07 4.44C26.07 5.85 26.10 8.33 26.10 9.70L26.10 10.29C26.10 10.57 26.08 10.65 25.86 10.37L20.17 3.39C20.06 3.25 20.03 3.19 19.87 3.19C19.78 3.19 19.40 3.23 19.10 3.23C18.80 3.23 17.72 3.19 17.53 3.19C17.36 3.19 17.33 3.26 17.33 3.47C17.33 3.64 17.36 3.70 17.53 3.70L18.44 3.70C18.44 4.17 18.40 8.53 18.33 10.79C18.30 11.69 18.31 12.18 18.20 12.18L17.56 12.18C17.33 12.18 17.29 12.19 17.29 12.39ZM35.27 3.44C35.27 3.68 35.35 3.70 35.52 3.70L35.92 3.70C36.05 3.70 38.30 7.74 38.71 8.50C38.77 8.60 38.81 8.65 38.81 8.81C38.81 10.50 38.79 12.18 38.67 12.18L37.95 12.18C37.73 12.18 37.69 12.19 37.69 12.39C37.69 12.63 37.70 12.68 37.90 12.68C38.09 12.68 38.91 12.64 39.49 12.64C40.32 12.64 40.85 12.68 41.17 12.68C41.34 12.68 41.37 12.61 41.37 12.40C41.37 12.24 41.34 12.18 41.17 12.18L40.21 12.18C40.11 12.18 40.08 9.72 40.08 8.22C40.08 8.18 40.08 8.15 40.12 8.09C40.67 7.22 42.62 3.70 42.69 3.70L43.16 3.70C43.33 3.70 43.43 3.68 43.43 3.44C43.43 3.22 43.34 3.19 43.16 3.19C42.94 3.19 42.70 3.23 42.10 3.23C41.51 3.23 41.17 3.19 41.01 3.19C40.81 3.19 40.77 3.25 40.77 3.49C40.77 3.68 40.84 3.70 41.06 3.70L41.79 3.70C41.80 3.70 41.82 3.71 41.82 3.74C41.82 4.05 40.25 6.99 39.87 7.71C39.76 7.92 39.76 7.88 39.65 7.67C39.24 6.89 37.95 4.56 37.66 3.85C37.60 3.71 37.59 3.70 37.77 3.70L38.60 3.70C38.82 3.70 38.85 3.68 38.85 3.49C38.85 3.25 38.81 3.19 38.65 3.19C38.42 3.19 37.80 3.23 37.00 3.23C36.19 3.23 35.70 3.19 35.52 3.19C35.34 3.19 35.27 3.21 35.27 3.44ZM50.78 5.01C50.78 5.17 50.96 5.17 51.09 5.17C51.24 5.17 51.28 5.15 51.30 4.97L51.41 3.89C51.42 3.81 51.97 3.75 52.72 3.75L54.71 3.75C54.77 3.75 54.80 4.35 54.80 4.97C54.80 6.43 54.74 12.18 54.61 12.18L53.75 12.18C53.52 12.18 53.48 12.19 53.48 12.39C53.48 12.63 53.49 12.68 53.69 12.68C54.01 12.68 54.99 12.64 55.41 12.64C55.83 12.64 56.77 12.68 57.09 12.68C57.26 12.68 57.29 12.61 57.29 12.40C57.29 12.24 57.26 12.18 57.09 12.18L56.10 12.18C56.07 12.18 56.07 11.76 56.07 11.31C56.07 9.56 56.15 5.96 56.15 5.92C56.17 5.18 56.17 3.75 56.27 3.75L57.88 3.75C58.59 3.75 59.42 3.78 59.42 3.85C59.42 3.99 59.37 4.90 59.37 4.97C59.37 5.12 59.44 5.17 59.63 5.17C59.82 5.17 59.89 5.17 59.89 5.03C59.89 3.93 59.95 3.40 59.95 3.14C59.95 2.94 59.86 2.94 59.67 2.94C59.51 2.94 59.46 2.98 59.44 3.16C59.44 3.23 58.80 3.28 57.96 3.28L52.96 3.28C52.30 3.28 51.49 3.28 51.49 3.21L51.49 3.07C51.49 2.94 51.37 2.94 51.27 2.94C51.04 2.94 51.02 3.00 51.00 3.19C50.95 3.89 50.78 4.97 50.78 5.01ZM67.70 12.39C67.70 12.63 67.70 12.68 67.90 12.68C68.22 12.68 69.16 12.64 69.58 12.64C70 12.64 70.83 12.68 71.15 12.68C71.32 12.68 71.32 12.61 71.32 12.40C71.32 12.24 71.32 12.18 71.15 12.18L70.22 12.18C70.14 12.18 70.10 9.93 70.10 8.20C70.10 8.01 70.10 8.01 70.22 8.01L75.46 8.01C75.53 8.01 75.54 8.01 75.54 8.18L75.54 9.91C75.54 11.05 75.53 12.18 75.47 12.18L74.70 12.18C74.48 12.18 74.44 12.19 74.44 12.39C74.44 12.63 74.45 12.68 74.65 12.68C74.97 12.68 75.81 12.64 76.23 12.64C76.65 12.64 77.24 12.68 77.56 12.68C77.73 12.68 77.74 12.61 77.74 12.40C77.74 12.24 77.73 12.18 77.56 12.18L76.82 12.18C76.78 12.18 76.76 9.27 76.76 7.04C76.76 5.40 76.76 3.70 76.80 3.70L77.42 3.70C77.64 3.70 77.69 3.68 77.69 3.49C77.69 3.25 77.67 3.19 77.48 3.19C77.34 3.19 76.71 3.23 76.12 3.23C75.45 3.23 74.84 3.19 74.62 3.19C74.42 3.19 74.40 3.22 74.40 3.44C74.40 3.67 74.47 3.70 74.63 3.70L75.43 3.70C75.49 3.70 75.54 4.79 75.54 5.71L75.54 7.42C75.54 7.59 75.54 7.59 75.38 7.59L70.27 7.59C70.10 7.59 70.10 7.59 70.10 7.38C70.10 6.96 70.08 6.23 70.08 5.53C70.08 4.66 70.10 3.70 70.15 3.70L70.92 3.70C71.15 3.70 71.19 3.68 71.19 3.49C71.19 3.25 71.18 3.19 70.98 3.19C70.66 3.19 70.07 3.23 69.47 3.23C68.88 3.23 68.39 3.19 68.17 3.19C67.98 3.19 67.89 3.21 67.89 3.44C67.89 3.68 68.00 3.70 68.17 3.70L68.78 3.70C68.84 3.70 68.85 5.59 68.85 7.18L68.85 8.61C68.85 10.08 68.84 12.18 68.77 12.18L67.96 12.18C67.73 12.18 67.70 12.19 67.70 12.39ZM85.64 12.39C85.64 12.63 85.68 12.68 85.88 12.68C86.20 12.68 86.95 12.64 87.67 12.64C88.33 12.64 89.12 12.68 89.35 12.68C89.52 12.68 89.54 12.61 89.54 12.40C89.54 12.24 89.52 12.18 89.35 12.18L88.38 12.18C88.28 12.18 88.26 9.55 88.26 7.76L88.26 5.87C88.26 5.14 88.28 3.70 88.38 3.70L89.29 3.70C89.52 3.70 89.54 3.68 89.54 3.49C89.54 3.25 89.52 3.19 89.35 3.19C89.03 3.19 88.35 3.23 87.70 3.23C86.88 3.23 86.17 3.19 85.95 3.19C85.76 3.19 85.69 3.21 85.69 3.44C85.69 3.68 85.78 3.70 85.95 3.70L86.87 3.70C86.91 3.70 86.98 4.79 86.98 5.71L86.98 7.08C86.98 8.92 86.97 12.18 86.86 12.18L85.93 12.18C85.71 12.18 85.64 12.19 85.64 12.39ZM97.44 12.39C97.44 12.63 97.45 12.68 97.65 12.68C97.83 12.68 98.21 12.64 98.83 12.64C99.46 12.64 100.02 12.68 100.34 12.68C100.51 12.68 100.51 12.61 100.51 12.40C100.51 12.24 100.51 12.18 100.34 12.18L99.13 12.18C99.09 12.18 99.08 11.54 99.08 10.79C99.08 9.46 99.09 7.48 99.09 5.99C99.09 5.25 99.09 4.84 99.11 4.28C99.11 4.02 99.18 4.14 99.30 4.28L106.19 12.66C106.27 12.75 106.36 12.89 106.47 12.89C106.58 12.89 106.65 12.77 106.65 12.54C106.65 12.39 106.82 6.65 106.83 4.48C106.83 4.06 106.86 3.70 106.89 3.70L107.52 3.70C107.74 3.70 107.80 3.68 107.80 3.49C107.80 3.25 107.80 3.19 107.60 3.19C107.41 3.19 106.97 3.23 106.41 3.23C105.80 3.23 105 3.19 104.90 3.19C104.73 3.19 104.73 3.26 104.73 3.47C104.73 3.64 104.73 3.70 104.90 3.70L106.20 3.70C106.22 3.70 106.22 4.33 106.22 4.44C106.22 5.85 106.25 8.33 106.25 9.70L106.25 10.29C106.25 10.57 106.23 10.65 106.01 10.37L100.32 3.39C100.21 3.25 100.18 3.19 100.02 3.19C99.93 3.19 99.55 3.23 99.25 3.23C98.95 3.23 97.87 3.19 97.68 3.19C97.51 3.19 97.48 3.26 97.48 3.47C97.48 3.64 97.51 3.70 97.68 3.70L98.59 3.70C98.59 4.17 98.55 8.53 98.48 10.79C98.45 11.69 98.46 12.18 98.35 12.18L97.71 12.18C97.48 12.18 97.44 12.19 97.44 12.39ZM115.91 7.91C115.91 11.40 118.27 12.89 120.86 12.89C122.75 12.89 124.75 11.89 124.75 11.58C124.75 11.12 124.77 10.68 124.77 10.33C124.77 9.81 124.78 9.56 124.91 9.56L125.34 9.56C125.48 9.56 125.50 9.39 125.50 9.30C125.50 9.18 125.48 9.06 125.34 9.06C125.12 9.06 124.75 9.10 124.08 9.10C123.63 9.10 122.89 9.07 122.21 9.06C122.07 9.06 122.07 9.24 122.07 9.35C122.07 9.45 122.09 9.56 122.22 9.56L123.44 9.56C123.48 9.56 123.54 9.87 123.54 10.33C123.54 10.82 123.52 11.41 123.49 11.65C123.48 11.76 122.84 12.39 121.25 12.39C119.01 12.39 117.42 10.29 117.42 7.94C117.42 5.42 118.97 3.54 120.97 3.54C122.86 3.54 124.04 4.87 124.04 5.03C124.04 5.15 123.98 6.12 123.98 6.17C123.98 6.31 124.03 6.36 124.29 6.36C124.49 6.36 124.56 6.33 124.56 6.15C124.56 5.43 124.60 3.75 124.60 3.56C124.60 3.36 124.50 3.33 124.29 3.33C124.07 3.33 124.04 3.39 124.04 3.56L124.04 3.91C124.04 3.99 124.00 4.02 123.87 3.92C123.59 3.72 122.60 3.08 121.03 3.08C118.19 3.08 115.91 4.79 115.91 7.91ZM143.40 7.91C143.40 11.31 145.77 12.87 148.36 12.87C150.14 12.87 151.91 11.90 151.96 11.59C152.12 10.29 152.18 9.70 152.18 9.66C152.18 9.56 152.14 9.52 151.97 9.51C151.91 9.51 151.86 9.49 151.82 9.49C151.70 9.49 151.65 9.53 151.62 9.70L151.44 11.33C151.42 11.45 150.32 12.24 148.75 12.24C146.62 12.24 144.91 10.29 144.91 7.94C144.91 5.42 146.34 3.54 148.34 3.54C150.19 3.54 151.54 5.01 151.54 5.17C151.54 5.29 151.48 6.40 151.48 6.45C151.48 6.59 151.52 6.64 151.79 6.64C151.98 6.64 152.05 6.62 152.05 6.44C152.05 5.73 152.11 3.92 152.11 3.67C152.11 3.47 152.00 3.44 151.79 3.44C151.56 3.44 151.54 3.50 151.54 3.67L151.54 4.05C151.54 4.16 151.49 4.16 151.37 4.06C151.09 3.86 150.11 3.04 148.44 3.04C145.60 3.04 143.40 4.96 143.40 7.91ZM160.64 8.15C160.64 11.17 162.97 12.80 165.23 12.80C168.01 12.80 169.99 10.89 169.99 8.06C169.99 5.33 168.24 3.11 165.44 3.11C162.83 3.11 160.64 5.10 160.64 8.15ZM162.04 7.77C162.04 5.64 163.32 3.58 165.30 3.58C167.54 3.58 168.62 5.81 168.62 7.94C168.62 10.08 167.51 12.32 165.24 12.32C163.25 12.32 162.04 10.28 162.04 7.77ZM178.02 12.46C178.02 12.63 178.04 12.70 178.22 12.70C178.37 12.70 179.61 12.64 180.00 12.64C180.85 12.64 181.73 12.70 182.59 12.70C185.21 12.70 187.60 11.07 187.60 7.91C187.60 4.89 185.26 3.07 182.22 3.07C181.66 3.07 180.40 3.23 179.37 3.23C178.89 3.23 178.43 3.22 178.37 3.22C178.19 3.22 178.18 3.32 178.18 3.49C178.18 3.68 178.25 3.70 178.37 3.70L179.34 3.67C179.37 3.67 179.37 4.20 179.37 4.72C179.37 5.91 179.28 12.21 179.20 12.21L178.30 12.21C178.12 12.21 178.02 12.22 178.02 12.46ZM180.60 11.40C180.60 9.46 180.60 7.52 180.61 5.60C180.61 5.03 180.66 3.61 180.70 3.60C180.99 3.53 181.58 3.51 181.93 3.51C184.49 3.51 186.10 5.75 186.10 7.73C186.10 8.95 186.06 12.25 181.38 12.25C181.12 12.25 180.71 12.25 180.61 12.21C180.60 12.19 180.60 11.79 180.60 11.40ZM195.71 12.39C195.71 12.63 195.73 12.68 195.93 12.68C196.25 12.68 197.22 12.64 197.64 12.64C198.06 12.64 202.57 12.68 202.89 12.68C203.01 12.68 203.17 12.66 203.17 12.49C203.17 12.07 203.21 11.23 203.21 10.53C203.21 10.39 203.06 10.39 202.93 10.39C202.82 10.39 202.69 10.39 202.69 10.51C202.68 11.06 202.68 11.41 202.65 11.76C202.62 12.01 202.62 12.04 202.52 12.04C202.37 12.04 199.74 12.08 198.24 12.08C198.17 12.08 198.13 10.11 198.09 8.26C198.09 8.06 198.13 8.09 198.27 8.09L200.55 8.09C201.25 8.09 201.28 8.20 201.28 8.30L201.28 9.00C201.28 9.14 201.46 9.14 201.57 9.14C201.67 9.14 201.80 9.13 201.80 9.02C201.80 8.83 201.77 8.33 201.77 7.83C201.77 7.32 201.80 6.83 201.80 6.71C201.80 6.59 201.66 6.58 201.56 6.58C201.45 6.58 201.28 6.59 201.28 6.72L201.28 7.45C201.28 7.62 200.83 7.63 200.55 7.63L198.21 7.63C198.10 7.63 198.09 7.63 198.09 7.45C198.07 6.75 198.06 6.06 198.06 5.46C198.06 5.12 198.06 3.71 198.14 3.71C199.37 3.71 201.88 3.75 201.88 3.81C201.88 3.99 201.84 4.83 201.84 4.89C201.84 5.04 201.91 5.10 202.09 5.10C202.29 5.10 202.36 5.08 202.36 4.94C202.36 3.85 202.41 3.36 202.41 3.09C202.41 2.91 202.33 2.90 202.13 2.90C201.94 2.90 201.94 2.95 201.91 3.11C201.89 3.25 201.96 3.25 201.05 3.25C200.44 3.25 198.30 3.29 197.53 3.29C197.04 3.29 196.10 3.25 196.00 3.25C195.87 3.25 195.82 3.30 195.82 3.49C195.82 3.72 195.89 3.74 196.06 3.74L196.71 3.74C196.77 3.74 196.84 4.79 196.84 5.71C196.84 5.80 196.90 8.27 196.90 9.83L196.90 11.17C196.90 11.84 196.87 12.18 196.84 12.18L195.99 12.18C195.76 12.18 195.71 12.21 195.71 12.39Z"></path></g></svg>